<svg width="11" height="12" viewBox="0 0 11 12" fill="none" xmlns="http://www.w3.org/2000/svg">
<path d="M5 3C5.99564 2.998 6.58018 2.8811 7.5 2.5C8.40135 2.12656 9.17263 1.41237 9.61135 0.946268C9.76294 0.785218 10.0425 0.865537 10.0599 1.08603C10.1969 2.83119 10.2988 8.02588 7 10.5C6.29436 10.8876 5.80503 11.0099 5 11C2.79103 10.9727 1 9.20914 1 7C1 4.79086 2.79086 3 5 3Z" fill="#498467"/>
<path d="M2.43555 10.0586L1.70669 9.26348L0.672486 10.3232C0.576886 10.4212 0.577842 10.5778 0.674631 10.6746L1.07279 11.0728C1.17059 11.1706 1.32922 11.1704 1.42678 11.0724L2.43555 10.0586Z" fill="#498467"/>
</svg>
